#!OML:ASF X:\für Bonn\!DataBase\2005_08_10_Bjorn_Final\c3d\bjorn.ASF
:FULLY-SPECIFIED
:DEGREES
294
root 23.1744 17.3144 -0.677017 27.3682 -66.6063 -343.09
lowerback 58.5388 1.51821 6.10532
upperback 18.6464 2.27582 -0.965842
thorax -0.0773762 1.02002 -4.57733
lowerneck -9.9014 -4.09368 7.69783
upperneck -8.89877 -6.31323 2.63415
head -1.30988 -3.56706 -0.540121
rclavicle 2.22639e-014 -1.27222e-014
rhumerus 76.0298 11.7618 -27.1412
rradius 15.286
rwrist 3.40647
rhand -29.0506 16.6187
rfingers 7.12502
rthumb -2.40062 -13.3475
lclavicle 2.22639e-014 -1.27222e-014
lhumerus 61.5842 -15.8145 89.3656
lradius 10.6678
lwrist -54.5108
lhand -27.5679 -4.02562
lfingers 7.12502
lthumb -0.968596 25.9519
rfemur -84.1186 -14.7964 15.4891
rtibia 65.4976
rfoot -19.2098 4.70033
rtoes -13.0033
lfemur -83.6247 5.76803 -30.1376
ltibia 61.9774
lfoot -12.881 -5.73179
ltoes -10.4226
295
root 23.171 17.3502 -0.684287 27.4406 -66.7224 -343.366
lowerback 58.1073 1.60628 5.98811
upperback 18.7251 2.28647 -0.944458
thorax 0.0186302 1.01313 -4.51066
lowerneck -10.1237 -4.11423 7.45414
upperneck -8.75553 -6.33942 2.798
head -1.2139 -3.56713 -0.457458
rclavicle -4.77083e-014 3.18055e-015
rhumerus 75.2256 12.2189 -26.1545
rradius 16.2161
rwrist 1.29037
rhand -28.386 15.8399
rfingers 7.12502
rthumb -1.75873 -14.1326
lclavicle -4.77083e-014 3.18055e-015
lhumerus 61.5182 -15.9984 88.2447
lradius 10.7782
lwrist -53.1363
lhand -27.5922 -3.97465
lfingers 7.12502
lthumb -0.992073 26.0028
rfemur -83.6548 -14.5402 15.4625
rtibia 65.0694
rfoot -19.1091 4.64064
rtoes -12.816
lfemur -83.1829 5.91098 -29.9711
ltibia 61.5572
lfoot -12.7651 -5.61123
ltoes -10.716
296
root 23.167 17.3889 -0.691119 27.3701 -66.8542 -343.53
lowerback 57.7188 1.68395 5.87223
upperback 18.7807 2.29033 -0.952032
thorax 0.0887786 1.00587 -4.4732
lowerneck -10.2313 -4.14533 7.30134
upperneck -8.69083 -6.37463 2.94004
head -1.16618 -3.57823 -0.392594
rclavicle -1.90833e-014 2.22639e-014
rhumerus 74.2298 12.6366 -25.8494
rradius 17.1153
rwrist -0.0724225
rhand -27.6752 15.0624
rfingers 7.12502
rthumb -1.07224 -14.9147
lclavicle -1.90833e-014 2.22639e-014
lhumerus 61.4514 -16.2751 87.0369
lradius 10.8517
lwrist -51.7051
lhand -27.6102 -3.90782
lfingers 7.12502
lthumb -1.00945 26.0695
rfemur -83.1251 -14.2974 15.3876
rtibia 64.609
rfoot -18.9945 4.55007
rtoes -12.8758
lfemur -82.6674 6.04054 -29.837
ltibia 61.1149
lfoot -12.6998 -5.46679
ltoes -11.111
297
root 23.1623 17.4284 -0.69706 27.3032 -67.0005 -343.691
lowerback 57.2755 1.77376 5.75652
upperback 18.8474 2.30687 -0.948986
thorax 0.176145 1.0039 -4.42894
lowerneck -10.1935 -4.19476 7.17683
upperneck -8.72499 -6.4204 3.06904
head -1.17498 -3.60058 -0.331168
rclavicle 1.74931e-014 -8.74653e-014
rhumerus 73.2 13.0203 -25.7046
rradius 17.9321
rwrist -1.13905
rhand -26.9813 14.3219
rfingers 7.12502
rthumb -0.401995 -15.6574
lclavicle 1.74931e-014 -8.74653e-014
lhumerus 61.3805 -16.5861 85.8194
lradius 10.9365
lwrist -50.2511
lhand -27.5782 -3.93345
lfingers 7.12502
lthumb -0.978578 26.044
rfemur -82.5899 -14.038 15.2847
rtibia 64.1345
rfoot -18.8858 4.46161
rtoes -12.7666
lfemur -82.1402 6.176 -29.706
ltibia 60.6448
lfoot -12.5681 -5.36473
ltoes -11.1248
298
root 23.1575 17.4708 -0.704025 27.1665 -67.1557 -343.815
lowerback 56.8609 1.87753 5.60075
upperback 18.903 2.32422 -0.927129
thorax 0.248671 0.996483 -4.34622
lowerneck -10.0937 -4.24224 7.03087
upperneck -8.81447 -6.45494 3.18521
head -1.2106 -3.61953 -0.267623
rclavicle 6.36111e-015 3.65764e-014
rhumerus 72.1542 13.433 -25.6561
rradius 18.7105
rwrist -1.98281
rhand -26.2989 13.541
rfingers 7.12502
rthumb 0.257067 -16.4386
lclavicle 6.36111e-015 3.65764e-014
lhumerus 61.2927 -16.9123 84.5494
lradius 11.0261
lwrist -48.72
lhand -27.5035 -3.95868
lfingers 7.12502
lthumb -0.906374 26.0191
rfemur -81.9987 -13.7799 15.1706
rtibia 63.6367
rfoot -18.774 4.39773
rtoes -12.5598
lfemur -81.5609 6.32116 -29.588
ltibia 60.1536
lfoot -12.4669 -5.23526
ltoes -11.4152
299
root 23.1513 17.5128 -0.710158 27.0768 -67.2805 -343.98
lowerback 56.4437 1.95166 5.50463
upperback 18.9309 2.34454 -0.912352
thorax 0.295793 0.994562 -4.29853
lowerneck -9.93884 -4.29452 6.99046
upperneck -8.90934 -6.50268 3.23877
head -1.2632 -3.64819 -0.239206
rclavicle 9.54166e-015 2.78299e-014
rhumerus 71.0053 13.8433 -25.7203
rradius 19.4741
rwrist -2.6163
rhand -25.6551 12.7511
rfingers 7.12502
rthumb 0.878849 -17.2268
lclavicle 9.54166e-015 2.78299e-014
lhumerus 61.1397 -17.2849 83.3072
lradius 11.1572
lwrist -47.2201
lhand -27.3722 -3.98357
lfingers 7.12502
lthumb -0.779532 25.9948
rfemur -81.4025 -13.5345 15.081
rtibia 63.121
rfoot -18.6456 4.30675
rtoes -12.4488
lfemur -80.9706 6.42939 -29.4217
ltibia 59.6411
lfoot -12.349 -5.12258
ltoes -11.4903
